<svg width="24" height="23" viewBox="0 0 24 23" fill="none" xmlns="http://www.w3.org/2000/svg">
<g clip-path="url(#clip0_218_373)">
<path d="M9.89059 0.327812C9.60934 0.0448041 9.18746 -0.0630084 8.79371 0.0358197C8.39996 0.134648 8.09527 0.435625 7.99215 0.812968L7.25152 3.62059L4.34527 2.83445C3.95152 2.72664 3.52965 2.83445 3.24371 3.10848C2.95777 3.3825 2.84527 3.7868 2.95777 4.16414L3.77809 6.9493L0.8484 7.66356C0.45465 7.75789 0.145275 8.05438 0.037462 8.43172C-0.0703505 8.80906 0.046837 9.20887 0.34215 9.4784L2.50777 11.4999L0.34215 13.5214C0.046837 13.7909 -0.065663 14.1952 0.037462 14.5725C0.140587 14.9499 0.45465 15.2419 0.8484 15.3407L3.77809 16.0505L2.95777 18.8356C2.84527 19.213 2.95777 19.6173 3.24371 19.8913C3.52965 20.1653 3.95152 20.2731 4.34527 20.1653L7.25152 19.3792L7.99215 22.1868C8.09059 22.5641 8.39996 22.8606 8.79371 22.9639C9.18746 23.0673 9.60465 22.955 9.89059 22.6764L12 20.6011L14.1093 22.6764C14.3953 22.955 14.8125 23.0673 15.2062 22.9639C15.6 22.8606 15.9046 22.5641 16.0078 22.1868L16.7484 19.3792L19.6546 20.1653C20.0484 20.2731 20.4703 20.1653 20.7562 19.8913C21.0421 19.6173 21.1546 19.213 21.0421 18.8356L20.2218 16.0505L23.1515 15.3407C23.5453 15.2464 23.8547 14.9499 23.9625 14.5725C24.0703 14.1952 23.9531 13.7909 23.6625 13.5214L21.4968 11.4999L23.6625 9.4784C23.9531 9.20438 24.0703 8.80457 23.9625 8.42723C23.8547 8.04988 23.5453 7.75789 23.1515 7.65906L20.2218 6.9493L21.0421 4.16414C21.1546 3.7868 21.0421 3.3825 20.7562 3.10848C20.4703 2.83445 20.0484 2.72664 19.6546 2.83445L16.7484 3.62059L16.0031 0.812968C15.9046 0.435625 15.5953 0.13914 15.2015 0.0358197C14.8078 -0.0675006 14.3906 0.0448041 14.1093 0.327812L12 2.4032L9.89059 0.327812Z" fill="black"/>
</g>
<defs>
<clipPath id="clip0_218_373">
<rect width="24" height="23" fill="white"/>
</clipPath>
</defs>
</svg>
