<svg width="19" height="16" viewBox="0 0 19 16" fill="none" xmlns="http://www.w3.org/2000/svg">
<path d="M17.683 0.518624C16.8618 -0.172875 15.5345 -0.172875 14.7133 0.518624L13.5847 1.46588L17.2555 4.55711L18.3841 3.60669C19.2053 2.91519 19.2053 1.79742 18.3841 1.10593L17.683 0.518624ZM6.46426 7.46519C6.23553 7.6578 6.0593 7.89462 5.95806 8.15669L4.84819 10.9606C4.73945 11.2321 4.82569 11.5321 5.06567 11.7373C5.30564 11.9426 5.66185 12.012 5.98806 11.9205L9.31768 10.9858C9.62514 10.9006 9.90636 10.7522 10.1388 10.5596L16.4119 5.27387L12.7373 2.17949L6.46426 7.46519ZM3.59959 1.85426C1.61231 1.85426 0 3.212 0 4.88549V12.9688C0 14.6423 1.61231 16 3.59959 16H13.1985C15.1858 16 16.7981 14.6423 16.7981 12.9688V9.93754C16.7981 9.37866 16.2619 8.92713 15.5982 8.92713C14.9345 8.92713 14.3983 9.37866 14.3983 9.93754V12.9688C14.3983 13.5277 13.8622 13.9792 13.1985 13.9792H3.59959C2.93591 13.9792 2.39972 13.5277 2.39972 12.9688V4.88549C2.39972 4.32661 2.93591 3.87508 3.59959 3.87508H7.19917C7.86284 3.87508 8.39903 3.42355 8.39903 2.86467C8.39903 2.30579 7.86284 1.85426 7.19917 1.85426H3.59959Z" fill="white"/>
</svg>
