<svg width="48" height="48" viewBox="0 0 48 48" fill="none" xmlns="http://www.w3.org/2000/svg">
<rect width="48" height="48" rx="20" fill="#4F92FF"/>
<path d="M37.5496 22.1685C37.4746 21.6555 37.3036 21.1215 37.0276 20.6805C36.6976 20.1495 36.1876 19.6875 35.6266 19.4025C35.2726 19.2225 34.8856 19.0935 34.4956 19.0155C34.2256 18.9615 33.9496 18.9195 33.6766 18.9105C33.6601 18.9105 33.6451 18.9105 33.6286 18.9105C33.4366 18.9105 33.2401 18.9435 33.0451 18.978C32.8996 18.6465 32.7286 18.33 32.4691 18.057C32.1871 17.757 31.8331 17.499 31.4551 17.331C30.9991 17.127 30.5791 16.998 30.0751 16.968C30.0346 16.965 29.9941 16.9635 29.9536 16.9635C29.5951 16.9635 29.2396 17.064 28.8871 17.115C28.8166 17.1255 28.7506 17.172 28.6831 17.2065C28.5196 16.935 28.3756 16.653 28.1986 16.392C27.7936 15.789 27.4186 15.168 27.0376 14.55C26.9896 14.472 26.9086 14.433 26.8471 14.3685C26.8951 14.295 26.9416 14.22 26.9896 14.148C27.3046 13.674 27.6256 13.203 27.9346 12.723C28.2316 12.261 28.4986 11.778 28.7746 11.301C29.3536 10.293 29.8396 9.225 30.2476 8.1375C30.4366 7.6335 30.5806 7.1175 30.6736 6.5865C30.7246 6.2895 30.7666 5.9925 30.7336 5.6925C30.7096 5.4945 30.6826 5.2935 30.6496 5.0955C30.6046 4.8405 30.4996 4.5915 30.3886 4.3575C30.1486 3.8505 29.7436 3.4665 29.3176 3.1155C29.1226 2.9565 28.9306 2.7915 28.7296 2.6415C28.5286 2.4885 28.2826 2.3955 28.0456 2.3175C27.8431 2.25 27.6376 2.2245 27.4321 2.2245C27.1441 2.2245 26.8546 2.2755 26.5711 2.3325C26.2681 2.3955 25.9681 2.4705 25.6771 2.5725C24.7411 2.9055 23.9701 3.5055 23.2651 4.1835C22.7296 4.698 22.2586 5.2785 21.7981 5.8635C21.5581 5.52 21.3166 5.1765 21.0796 4.8315C20.7076 4.2915 20.3116 3.7515 19.8826 3.2565C19.7776 3.1395 19.6546 3.0375 19.5406 2.9295C19.3636 2.7615 19.1866 2.5935 19.0036 2.4315C18.7366 2.1945 18.4516 1.9245 18.1216 1.7805C17.7436 1.6125 17.5006 1.5555 17.0866 1.5075C17.0131 1.503 16.9381 1.5 16.8616 1.5C16.5976 1.5 16.3231 1.545 16.0771 1.605C15.7351 1.686 15.4051 1.86 15.1171 2.061C14.4451 2.535 13.9051 3.1905 13.6741 3.9915C13.5031 4.5945 13.4431 5.2485 13.4401 5.8725C13.4341 6.5655 13.4761 7.2405 13.6861 7.9035C13.9021 8.583 14.1901 9.249 14.4841 9.9C14.7451 10.479 15.0421 11.049 15.3241 11.619C15.6391 12.261 15.9541 12.906 16.2841 13.545C16.3111 13.5975 16.3606 13.629 16.3966 13.674C16.1281 14.1015 15.8656 14.532 15.6331 14.9805C15.0541 16.1025 14.5141 17.25 14.0221 18.411C13.7491 19.056 13.4941 19.704 13.2661 20.37C13.0471 21.009 12.8551 21.657 12.6451 22.299C12.5911 22.467 12.5881 22.638 12.6151 22.8045C12.4606 22.9755 12.3166 23.1585 12.1861 23.3415C12.0361 23.5545 11.8861 23.7675 11.7451 23.9865C11.4871 24.3795 11.2921 24.8025 11.0941 25.2255C10.8331 25.7925 10.6291 26.3655 10.4941 26.9745C10.3771 27.4965 10.3351 28.0005 10.3681 28.5315C10.3921 28.9815 10.4821 29.4315 10.5781 29.8725C10.6711 30.3135 10.7761 30.7605 10.9291 31.1865C11.0911 31.6425 11.2561 32.0925 11.3881 32.5575C11.6821 33.6135 12.0331 34.656 12.3961 35.691C11.9971 35.895 11.7151 36.3015 11.7106 36.777C11.7046 37.572 11.7196 38.364 11.7286 39.159C11.7376 39.927 11.7286 40.692 11.7316 41.46C11.7376 42.159 11.7556 42.855 11.7586 43.554C11.7586 43.833 11.7706 44.112 11.7736 44.388C11.7796 44.631 11.7736 44.874 11.7976 45.114C11.8276 45.441 11.9056 45.717 12.1456 45.957C12.1921 46.0035 12.2551 46.0275 12.3091 46.0665C12.5341 46.3305 12.8566 46.509 13.2241 46.5075C13.8421 46.5015 14.4571 46.4775 15.0721 46.4625C15.3241 46.4595 15.5761 46.4595 15.8311 46.4595C16.1101 46.4595 16.3921 46.4595 16.6771 46.4505C17.8201 46.4175 18.9631 46.3695 20.1076 46.3515C21.1216 46.3395 22.1356 46.3455 23.1481 46.3515C24.3271 46.3575 25.5061 46.3635 26.6836 46.3395C27.8146 46.3155 28.9516 46.2765 30.0811 46.3215C30.3256 46.3305 30.5416 46.233 30.7291 46.0965C31.0261 46.086 31.3111 45.969 31.5241 45.759C31.6681 45.612 31.7701 45.438 31.8271 45.237C31.8841 45.027 31.8841 44.82 31.8271 44.61C31.8151 44.544 31.8031 44.4795 31.7926 44.415C31.7461 43.917 31.7446 43.416 31.7191 42.9195C31.6891 42.3045 31.6741 41.6895 31.6381 41.0775C31.5991 40.4565 31.5631 39.8355 31.5511 39.2145C31.5361 38.4705 31.5481 37.7235 31.5541 36.9795C31.5586 36.495 31.2511 36.0735 30.8266 35.892C30.6421 35.6475 30.3751 35.4825 30.0661 35.466C30.1486 35.229 30.2446 34.9995 30.3241 34.7565C30.5191 34.1535 30.7321 33.5625 30.9001 32.9505C31.0501 32.4135 31.2271 31.8885 31.3621 31.3485C31.4881 30.84 31.6141 30.333 31.7386 29.826C32.1466 29.913 32.5696 29.949 32.9701 29.8305C33.3601 29.7195 33.7411 29.4855 34.0741 29.2605C34.2961 29.1105 34.5241 28.9815 34.7551 28.8465C35.0641 28.6635 35.3491 28.4355 35.5981 28.1775C35.9641 27.8025 36.2581 27.3795 36.5191 26.9265C36.7741 26.4855 37.0201 26.0505 37.2151 25.5795C37.2991 25.3755 37.3771 25.1685 37.4431 24.9585C37.5331 24.6765 37.5571 24.3735 37.5961 24.0825C37.6756 23.4435 37.6456 22.8045 37.5496 22.1685ZM29.8036 19.3335C29.8921 19.329 29.9791 19.329 30.0676 19.3335C30.1891 19.359 30.3076 19.3905 30.4246 19.431C30.5116 19.476 30.5941 19.5255 30.6751 19.581C30.7486 19.644 30.8191 19.7115 30.8866 19.7835C30.9316 19.8555 30.9721 19.929 31.0096 20.0055C31.0981 20.2395 31.1701 20.478 31.2256 20.724C31.2406 20.9985 31.2136 21.2775 31.1821 21.549C31.1416 21.789 31.0846 22.0125 30.9991 22.2405C30.8071 22.6575 30.5881 23.0655 30.3601 23.4675C30.1621 23.8215 29.9506 24.171 29.7151 24.5025C29.6056 24.6315 29.4946 24.756 29.3686 24.87C29.2456 24.957 29.1181 25.0395 28.9846 25.11C28.8751 25.146 28.7656 25.176 28.6531 25.2C28.5946 25.2015 28.5346 25.2 28.4761 25.197C28.3726 25.1745 28.2706 25.146 28.1701 25.1115C28.1356 25.0935 28.1026 25.0755 28.0696 25.0545C28.0426 25.029 28.0156 25.002 27.9901 24.975C27.9841 24.9645 27.9781 24.954 27.9721 24.9435C27.9436 24.858 27.9211 24.771 27.9016 24.681C27.8821 24.411 27.8941 24.147 27.9256 23.8755C27.9226 23.895 27.9196 23.916 27.9166 23.937C27.9496 23.6715 27.9811 23.406 28.0156 23.1405C28.0741 22.797 28.1641 22.458 28.2301 22.116C28.2901 21.804 28.3561 21.492 28.4281 21.183C28.5181 20.781 28.6141 20.376 28.7671 19.995C28.8451 19.8 28.9261 19.605 29.0086 19.41C29.1706 19.431 29.3356 19.419 29.5111 19.389C29.6101 19.371 29.7061 19.3515 29.8036 19.3335ZM15.8821 6.7635C15.8251 6.195 15.8206 5.619 15.8791 5.049C15.9091 4.9005 15.9436 4.755 15.9901 4.611C16.0291 4.5375 16.0696 4.467 16.1146 4.3965C16.1896 4.3095 16.2676 4.227 16.3516 4.149C16.4371 4.0935 16.5241 4.0425 16.6141 3.9945C16.6681 3.978 16.7236 3.9645 16.7791 3.9525C16.8571 3.948 16.9351 3.9465 17.0131 3.948C17.0506 3.9705 17.0866 3.993 17.1226 4.0185C17.6431 4.452 18.1021 4.9215 18.5296 5.448C19.1251 6.246 19.6606 7.0845 20.2711 7.869C19.9456 8.304 19.6081 8.7315 19.2961 9.174C18.7951 9.882 18.3436 10.6215 17.8816 11.3565C17.6941 11.0175 17.5066 10.6785 17.3236 10.3395C17.0116 9.7665 16.7431 9.168 16.4791 8.5725C16.2376 7.9845 16.0036 7.386 15.8821 6.7635ZM16.1446 19.2675C16.5226 18.39 16.9096 17.517 17.3536 16.671C17.8606 15.699 18.4126 14.754 19.0096 13.836C19.5706 12.975 20.1166 12.102 20.6836 11.2455C21.1921 10.476 21.7381 9.7305 22.2991 9C22.8271 8.3235 23.3746 7.653 23.9536 7.017C24.4666 6.456 24.9931 5.9085 25.5826 5.4255C25.8331 5.244 26.0986 5.076 26.3761 4.9395C26.6941 4.8225 27.0196 4.734 27.3526 4.6695C27.3661 4.6695 27.3781 4.6695 27.3916 4.668C27.3931 4.668 27.3961 4.6695 27.3976 4.6695C27.4456 4.698 27.4906 4.7295 27.5341 4.7625C27.7651 4.9485 27.9916 5.139 28.1896 5.3625C28.2046 5.388 28.2196 5.415 28.2331 5.4405C28.2706 5.5545 28.2991 5.67 28.3216 5.787C28.3306 5.9085 28.3306 6.0285 28.3231 6.153C28.2436 6.6375 28.1296 7.104 27.9676 7.575C27.8011 8.067 27.6031 8.55 27.4021 9.0285C26.7271 10.5165 25.8196 11.898 24.9556 13.2825C24.5356 13.9545 24.1126 14.6145 23.6506 15.2625C23.2291 15.855 22.7926 16.4415 22.3516 17.019C22.1611 17.2605 21.9721 17.496 21.7366 17.694C21.2716 18.087 21.3346 18.867 21.7366 19.269C22.1506 19.683 22.9006 19.716 23.3116 19.269C23.6536 18.897 23.9446 18.474 24.2536 18.072C24.5806 17.643 24.9016 17.211 25.2166 16.773C25.2976 16.6605 25.3771 16.545 25.4581 16.431C25.7176 16.8 25.9741 17.1705 26.1976 17.559C26.4106 17.934 26.5936 18.315 26.8396 18.669C26.8411 18.6705 26.8426 18.672 26.8441 18.675C26.7256 18.993 26.5996 19.3065 26.5021 19.6305C26.3701 20.0625 26.2741 20.5095 26.1781 20.9505C26.0971 21.3165 26.0281 21.6855 25.9411 22.0515C25.8151 22.5795 25.7701 23.1225 25.6981 23.6595C25.6471 24.0615 25.6141 24.4695 25.6681 24.8745C25.7341 25.3665 25.8181 25.8675 26.1181 26.2815C26.4691 26.7675 26.9131 27.1065 27.4711 27.3255C27.8971 27.4905 28.4041 27.5805 28.8571 27.5265C28.9831 27.5115 29.0971 27.4695 29.2186 27.444C29.3191 27.7785 29.4526 28.0995 29.6401 28.389C29.6161 28.446 29.5801 28.497 29.5666 28.56C29.4226 29.223 29.2846 29.889 29.1556 30.555C29.0626 31.026 28.9246 31.479 28.7896 31.938C28.5001 32.934 28.2316 33.951 27.8461 34.917C27.7966 35.022 27.7441 35.1255 27.6916 35.2305C27.6466 35.3205 27.6301 35.415 27.6061 35.5095C27.4171 35.5155 27.2281 35.5215 27.0391 35.5245C25.9801 35.5395 24.9241 35.5515 23.8666 35.5485C23.4646 35.5485 23.0626 35.5485 22.6606 35.5515C21.9376 35.5515 21.2146 35.5545 20.4916 35.5425C19.3306 35.5275 18.1696 35.4645 17.0101 35.4315C16.3036 35.412 15.5986 35.3745 14.8921 35.343C14.8831 35.301 14.8951 35.2575 14.8786 35.2155C14.6236 34.5225 14.3656 33.8325 14.1166 33.1395C13.9126 32.5605 13.7446 31.9725 13.5646 31.3905C13.4056 30.8835 13.2196 30.3915 13.0846 29.8785C12.9811 29.4795 12.8776 29.079 12.8101 28.674C12.7786 28.398 12.7651 28.1235 12.7846 27.849C12.8746 27.3645 12.9901 26.895 13.1701 26.436C13.4521 25.7865 13.7941 25.1415 14.2081 24.567C14.2936 24.462 14.3836 24.36 14.4796 24.2655C14.5966 24.1905 14.7166 24.1215 14.8396 24.057C15.2401 23.9145 15.6571 23.8155 16.0786 23.748C17.0716 23.6325 18.0541 23.5575 19.0531 23.5605C19.4971 23.5605 19.9381 23.5905 20.3791 23.6025C20.7136 23.613 21.0571 23.6175 21.3901 23.6505C21.5176 23.67 21.6466 23.6925 21.7696 23.7285C21.7771 23.733 21.7846 23.7375 21.7936 23.742C21.8071 23.7555 21.8191 23.769 21.8311 23.7825C21.8596 23.829 21.8881 23.8755 21.9136 23.9235C21.9616 24.0645 22.0006 24.2055 22.0306 24.351C22.0366 24.4665 22.0351 24.582 22.0246 24.699C21.9886 24.8835 21.9391 25.065 21.8761 25.2435C21.7936 25.404 21.6946 25.554 21.5896 25.6995C21.4441 25.866 21.2731 26.004 21.0976 26.139C20.8021 26.355 20.4871 26.541 20.1526 26.6925C19.7521 26.862 19.3441 27.0285 18.9181 27.102C18.4996 27.153 18.1051 27.2115 17.7226 27.435C17.3836 27.633 17.0956 27.963 16.8076 28.224C16.3426 28.647 16.3786 29.427 16.8076 29.853C17.2306 30.276 18.0196 30.324 18.4336 29.853C18.5836 29.685 18.7366 29.514 18.9046 29.3625C18.9136 29.3565 18.9241 29.352 18.9331 29.346C18.9946 29.328 19.0591 29.3145 19.1236 29.3025C19.4431 29.262 19.7566 29.217 20.0656 29.1075C20.3656 29.0025 20.6656 28.8825 20.9596 28.7565C21.5296 28.5195 22.0186 28.2345 22.5016 27.8475C22.6876 27.7005 22.8766 27.5535 23.0536 27.3945C23.2366 27.2265 23.3866 27.0015 23.5336 26.8095C24.0196 26.1735 24.2296 25.3785 24.2926 24.5925C24.3256 24.1755 24.2536 23.7375 24.1366 23.3385C23.9506 22.7115 23.5786 22.1655 23.0506 21.7815C22.7176 21.5415 22.3276 21.4455 21.9316 21.3645C21.5026 21.2775 21.0586 21.2565 20.6206 21.2295C20.0881 21.198 19.5556 21.1785 19.0231 21.1785C18.6541 21.1785 18.2836 21.1875 17.9116 21.2085C17.4526 21.2325 17.0026 21.2805 16.5496 21.3375C16.1641 21.387 15.7801 21.441 15.3991 21.507C15.4456 21.336 15.4921 21.165 15.5416 20.9955C15.7141 20.4075 15.9136 19.8375 16.1446 19.2675ZM21.9466 25.086C21.9361 25.113 21.9256 25.14 21.9136 25.167C21.9121 25.17 21.9106 25.173 21.9091 25.1745C21.9226 25.1445 21.9346 25.1145 21.9466 25.086ZM21.9061 25.1835C21.8851 25.2345 21.8641 25.2855 21.8416 25.3365C21.8596 25.2945 21.8761 25.2525 21.8941 25.209C21.8986 25.2015 21.9031 25.1925 21.9061 25.1835ZM21.8416 25.3365C21.8401 25.3395 21.8386 25.344 21.8371 25.3485C21.8266 25.3725 21.8161 25.398 21.8056 25.422C21.8176 25.3935 21.8296 25.365 21.8416 25.3365ZM18.9496 29.3235C18.9481 29.3235 18.9466 29.3235 18.9451 29.3235C18.9451 29.3235 18.9481 29.3235 18.9496 29.3235ZM18.9346 29.325C18.9091 29.328 18.8851 29.3325 18.8596 29.334C18.8851 29.3325 18.9106 29.328 18.9346 29.325ZM28.4851 44.031C27.9811 44.037 27.4771 44.04 26.9731 44.046C25.8901 44.055 24.8071 44.04 23.7286 44.034C22.6156 44.028 21.5056 44.052 20.3971 44.055C19.2541 44.061 18.1111 44.07 16.9666 44.091C16.0291 44.109 15.0931 44.0835 14.1571 44.0655C14.1586 43.911 14.1601 43.758 14.1601 43.6035C14.1601 42.9165 14.1421 42.2265 14.1241 41.5395C14.0866 40.233 14.1181 38.925 14.1541 37.6185C15.1066 37.632 16.0591 37.617 17.0131 37.617C18.1741 37.617 19.3351 37.683 20.4946 37.695C21.6196 37.707 22.7446 37.713 23.8681 37.713C24.3331 37.713 24.7981 37.719 25.2631 37.722C25.8541 37.728 26.4481 37.737 27.0421 37.728C27.7681 37.719 28.4941 37.686 29.2216 37.689C29.2591 38.91 29.3386 40.131 29.3941 41.3535C29.4241 42.0315 29.4331 42.7095 29.4511 43.3875C29.4556 43.5975 29.4586 43.809 29.4646 44.019C29.3161 44.0205 29.1676 44.031 29.0191 44.031C28.8391 44.031 28.6621 44.028 28.4851 44.031ZM35.2726 23.991C35.2201 24.2775 35.1376 24.5535 35.0371 24.825C34.9171 25.0875 34.7776 25.3365 34.6381 25.5915C34.5121 25.818 34.3906 26.049 34.2451 26.265C34.0981 26.442 33.9376 26.61 33.7651 26.763C33.4771 26.9565 33.1606 27.1065 32.8696 27.2985C32.7091 27.405 32.5471 27.5115 32.3761 27.6015C32.3686 27.603 32.3626 27.606 32.3551 27.6075C32.3206 27.6075 32.2861 27.6075 32.2516 27.606C32.1436 27.582 32.0371 27.5535 31.9306 27.5175C31.8616 27.483 31.7956 27.4455 31.7296 27.405C31.6771 27.357 31.6276 27.3075 31.5811 27.255C31.5496 27.2055 31.5211 27.1545 31.4941 27.1035C31.4101 26.856 31.3531 26.601 31.2946 26.346C31.2886 26.3235 31.2721 26.3085 31.2661 26.2875C31.4671 26.055 31.6561 25.812 31.8301 25.5615C32.3821 24.7635 32.8561 23.8905 33.2191 22.995C33.4366 22.461 33.4801 21.8955 33.4981 21.3225C33.5716 21.3195 33.6436 21.3075 33.7156 21.309C33.9241 21.348 34.1251 21.4005 34.3261 21.4665C34.4656 21.5385 34.5976 21.6255 34.7266 21.717C34.8136 21.7935 34.8931 21.8745 34.9696 21.9615C35.0161 22.0305 35.0581 22.101 35.0956 22.173C35.1796 22.4115 35.2426 22.6545 35.2861 22.9035C35.3146 23.2665 35.3086 23.628 35.2726 23.991Z" fill="white" fill-opacity="0.7"/>
</svg>
