<svg width="40" height="40" viewBox="0 0 40 40" fill="none" xmlns="http://www.w3.org/2000/svg">
<path d="M28.3332 30C29.3332 27.5078 31.4061 25.3828 33.4582 23.2656C33.9998 22.7109 34.5415 22.1562 35.0623 21.5938C37.1248 19.3672 38.3332 16.6719 38.3332 13.7578C38.3332 6.15625 30.1248 0 19.9998 0C9.87484 0 1.6665 6.15625 1.6665 13.75C1.6665 16.6641 2.87484 19.3672 4.93734 21.5859C5.45817 22.1484 5.99984 22.7031 6.5415 23.2578C8.604 25.375 10.6769 27.5078 11.6665 29.9922H28.3332V30ZM19.9998 40C24.604 40 28.3332 37.2031 28.3332 33.75V32.5H11.6665V33.75C11.6665 37.2031 15.3957 40 19.9998 40ZM11.6665 13.75C11.6665 14.4375 10.9165 15 9.99984 15C9.08317 15 8.33317 14.4375 8.33317 13.75C8.33317 8.91406 13.5519 5 19.9998 5C20.9165 5 21.6665 5.5625 21.6665 6.25C21.6665 6.9375 20.9165 7.5 19.9998 7.5C15.3957 7.5 11.6665 10.2969 11.6665 13.75Z" fill="black"/>
</svg>
