<svg width="40" height="40" viewBox="0 0 40 40" fill="none" xmlns="http://www.w3.org/2000/svg">
<g clip-path="url(#clip0_217_37)">
<path d="M12.8571 11.25V15H27.1429V11.25C27.1429 7.79688 23.9464 5 20 5C16.0536 5 12.8571 7.79688 12.8571 11.25ZM7.14286 15V11.25C7.14286 5.03906 12.9018 0 20 0C27.0982 0 32.8571 5.03906 32.8571 11.25V15H34.2857C37.4375 15 40 17.2422 40 20V35C40 37.7578 37.4375 40 34.2857 40H5.71429C2.5625 40 0 37.7578 0 35V20C0 17.2422 2.5625 15 5.71429 15H7.14286Z" fill="black"/>
</g>
<defs>
<clipPath id="clip0_217_37">
<rect width="40" height="40" fill="white"/>
</clipPath>
</defs>
</svg>
