<svg width="36" height="32" viewBox="0 0 36 32" fill="none" xmlns="http://www.w3.org/2000/svg">
<g clip-path="url(#clip0_13_245)">
<path d="M16.0511 19.0343C15.7425 19.3086 15.7425 19.7533 16.0511 20.0276C16.2056 20.1649 16.4075 20.2334 16.6098 20.2334C16.8121 20.2334 17.0145 20.1649 17.1686 20.0276L21.1608 16.4789C21.1976 16.4463 21.2308 16.4101 21.26 16.3714C21.2731 16.3542 21.2818 16.3356 21.2928 16.3177C21.3066 16.2956 21.3217 16.2742 21.3327 16.2503C21.3434 16.2271 21.3497 16.2032 21.3576 16.1793C21.3643 16.1593 21.373 16.14 21.3778 16.1192C21.3979 16.0283 21.3979 15.9348 21.3778 15.8442C21.373 15.8235 21.3643 15.8042 21.3576 15.7842C21.3497 15.7603 21.3434 15.7364 21.3327 15.7132C21.3217 15.6897 21.3066 15.6682 21.2928 15.6458C21.2818 15.6279 21.2731 15.6092 21.26 15.592C21.2308 15.5534 21.198 15.5172 21.1608 15.4845L17.1686 11.9362C16.8603 11.6619 16.3593 11.6619 16.0511 11.9362C15.7425 12.2105 15.7425 12.6552 16.0511 12.9295L18.6947 15.2794H8.97185C8.53559 15.2794 8.18153 15.5941 8.18153 15.9819C8.18153 16.3697 8.53559 16.6844 8.97185 16.6844H18.6947L16.0511 19.0343Z" fill="#E0E0F0" fill-opacity="0.5"/>
<path d="M26.1975 7.92505H11.5044C11.0682 7.92505 10.7141 8.23977 10.7141 8.62755V11.649C10.7141 12.0368 11.0682 12.3515 11.5044 12.3515C11.9407 12.3515 12.2947 12.0368 12.2947 11.649V9.33005H25.4072V22.6336H12.2947V20.3147C12.2947 19.9269 11.9407 19.6122 11.5044 19.6122C11.0682 19.6122 10.7141 19.9269 10.7141 20.3147V23.3361C10.7141 23.7239 11.0682 24.0386 11.5044 24.0386H26.1975C26.6338 24.0386 26.9878 23.7239 26.9878 23.3361V8.62755C26.9878 8.23977 26.6338 7.92505 26.1975 7.92505Z" fill="#E0E0F0" fill-opacity="0.5"/>
<path d="M17.9798 0.175781C8.17482 0.175781 0.1978 7.26647 0.1978 15.982C0.1978 24.6976 8.17482 31.7883 17.9798 31.7883C27.7848 31.7883 35.7619 24.6976 35.7619 15.982C35.7619 7.26647 27.7848 0.175781 17.9798 0.175781ZM17.9798 30.3833C9.04653 30.3833 1.77842 23.9227 1.77842 15.982C1.77842 8.04132 9.04653 1.58078 17.9798 1.58078C26.9131 1.58078 34.1812 8.04132 34.1812 15.982C34.1812 23.9227 26.9131 30.3833 17.9798 30.3833Z" fill="#E0E0F0" fill-opacity="0.5"/>
</g>
<defs>
<clipPath id="clip0_13_245">
<rect width="36" height="32" fill="white"/>
</clipPath>
</defs>
</svg>
