<svg width="40" height="40" viewBox="0 0 40 40" fill="none" xmlns="http://www.w3.org/2000/svg">
<path d="M1.66675 5C1.66675 2.24219 4.65633 0 8.33342 0H31.6667C35.3438 0 38.3334 2.24219 38.3334 5V35C38.3334 37.7578 35.3438 40 31.6667 40H8.33342C4.65633 40 1.66675 37.7578 1.66675 35V5ZM15.0001 35C15.0001 35.6875 15.7501 36.25 16.6667 36.25H23.3334C24.2501 36.25 25.0001 35.6875 25.0001 35C25.0001 34.3125 24.2501 33.75 23.3334 33.75H16.6667C15.7501 33.75 15.0001 34.3125 15.0001 35ZM31.6667 5H8.33342V30H31.6667V5Z" fill="black"/>
</svg>
