<svg width="603" height="352" viewBox="0 0 603 352" fill="none" xmlns="http://www.w3.org/2000/svg">
<path d="M14 186.587L5.54 186.587L5.54 185.591L14 185.591L14 186.587ZM14 183.589L9.368 183.589C9.144 183.589 8.916 183.601 8.684 183.625C8.444 183.641 8.208 183.661 7.976 183.685L7.976 182.749L9.296 182.629L9.296 182.773C8.832 182.597 8.48 182.317 8.24 181.933C7.992 181.541 7.868 181.089 7.868 180.577C7.868 179.865 8.06 179.329 8.444 178.969C8.82 178.601 9.416 178.417 10.232 178.417L14 178.417L14 179.389L10.292 179.389C9.724 179.389 9.312 179.505 9.056 179.737C8.792 179.961 8.66 180.313 8.66 180.793C8.66 181.353 8.832 181.797 9.176 182.125C9.52 182.453 9.98 182.617 10.556 182.617L14 182.617L14 183.589ZM14.108 174.422C14.108 175.014 13.94 175.466 13.604 175.778C13.26 176.09 12.744 176.246 12.056 176.246L8.732 176.246L8.732 177.422L7.976 177.422L7.976 176.246L6.332 176.246L6.056 175.274L7.976 175.274L7.976 173.546L8.732 173.546L8.732 175.274L11.948 175.274C12.428 175.274 12.772 175.194 12.98 175.034C13.18 174.866 13.28 174.618 13.28 174.29C13.28 174.138 13.268 174.002 13.244 173.882C13.212 173.762 13.176 173.654 13.136 173.558L13.952 173.558C14 173.67 14.036 173.806 14.06 173.966C14.092 174.118 14.108 174.27 14.108 174.422ZM14.108 169.745C14.108 170.689 13.836 171.433 13.292 171.977C12.74 172.521 11.976 172.793 11 172.793C10.368 172.793 9.82 172.673 9.356 172.433C8.884 172.193 8.52 171.857 8.264 171.425C8 170.993 7.868 170.497 7.868 169.937C7.868 169.385 7.984 168.921 8.216 168.545C8.448 168.169 8.78 167.881 9.212 167.681C9.636 167.481 10.14 167.381 10.724 167.381L11.084 167.381L11.084 172.049L10.472 172.049L10.472 168.017L10.628 168.221C9.988 168.221 9.488 168.365 9.128 168.653C8.768 168.941 8.588 169.369 8.588 169.937C8.588 170.537 8.8 171.005 9.224 171.341C9.64 171.677 10.204 171.845 10.916 171.845L11.024 171.845C11.776 171.845 12.348 171.661 12.74 171.293C13.124 170.917 13.316 170.393 13.316 169.721C13.316 169.361 13.264 169.025 13.16 168.713C13.048 168.393 12.868 168.089 12.62 167.801L13.304 167.465C13.56 167.729 13.76 168.065 13.904 168.473C14.04 168.873 14.108 169.297 14.108 169.745ZM14 165.894L9.368 165.894C9.144 165.894 8.916 165.906 8.684 165.93C8.444 165.946 8.208 165.966 7.976 165.99L7.976 165.054L9.296 164.934L9.296 165.078C8.832 164.902 8.48 164.622 8.24 164.238C7.992 163.846 7.868 163.394 7.868 162.882C7.868 162.17 8.06 161.634 8.444 161.274C8.82 160.906 9.416 160.722 10.232 160.722L14 160.722L14 161.694L10.292 161.694C9.724 161.694 9.312 161.81 9.056 162.042C8.792 162.266 8.66 162.618 8.66 163.098C8.66 163.658 8.832 164.102 9.176 164.43C9.52 164.758 9.98 164.922 10.556 164.922L14 164.922L14 165.894ZM14.108 156.859C14.108 157.339 14.044 157.787 13.916 158.203C13.78 158.619 13.592 158.963 13.352 159.235L12.668 158.899C12.9 158.603 13.072 158.283 13.184 157.939C13.296 157.587 13.352 157.223 13.352 156.847C13.352 156.367 13.268 156.007 13.1 155.767C12.924 155.519 12.684 155.395 12.38 155.395C12.148 155.395 11.964 155.475 11.828 155.635C11.684 155.787 11.572 156.039 11.492 156.391L11.264 157.507C11.152 158.019 10.964 158.403 10.7 158.659C10.428 158.915 10.084 159.043 9.668 159.043C9.316 159.043 9.008 158.951 8.744 158.767C8.472 158.583 8.26 158.315 8.108 157.963C7.948 157.611 7.868 157.199 7.868 156.727C7.868 156.287 7.936 155.883 8.072 155.515C8.2 155.139 8.388 154.827 8.636 154.579L9.308 154.927C9.076 155.167 8.904 155.443 8.792 155.755C8.672 156.059 8.612 156.375 8.612 156.703C8.612 157.175 8.708 157.531 8.9 157.771C9.084 158.003 9.328 158.119 9.632 158.119C9.864 158.119 10.056 158.047 10.208 157.903C10.352 157.751 10.46 157.519 10.532 157.207L10.76 156.091C10.88 155.547 11.068 155.143 11.324 154.879C11.572 154.607 11.908 154.471 12.332 154.471C12.692 154.471 13.008 154.571 13.28 154.771C13.544 154.971 13.748 155.251 13.892 155.611C14.036 155.963 14.108 156.379 14.108 156.859ZM14 152.909L7.976 152.909L7.976 151.937L14 151.937L14 152.909ZM6.608 153.029L5.516 153.029L5.516 151.829L6.608 151.829L6.608 153.029ZM14.108 147.914C14.108 148.506 13.94 148.958 13.604 149.27C13.26 149.582 12.744 149.738 12.056 149.738L8.732 149.738L8.732 150.914L7.976 150.914L7.976 149.738L6.332 149.738L6.056 148.766L7.976 148.766L7.976 147.038L8.732 147.038L8.732 148.766L11.948 148.766C12.428 148.766 12.772 148.686 12.98 148.526C13.18 148.358 13.28 148.11 13.28 147.782C13.28 147.63 13.268 147.494 13.244 147.374C13.212 147.254 13.176 147.146 13.136 147.05L13.952 147.05C14 147.162 14.036 147.298 14.06 147.458C14.092 147.61 14.108 147.762 14.108 147.914ZM16.724 146.024L15.92 146.252C15.832 145.876 15.728 145.564 15.608 145.316C15.496 145.06 15.344 144.848 15.152 144.68C14.96 144.512 14.72 144.368 14.432 144.248L13.724 143.936L14.132 143.96L7.976 146.588L7.976 145.532L13.268 143.36L13.268 143.672L7.976 141.524L7.976 140.504L14.504 143.288C14.888 143.448 15.208 143.624 15.464 143.816C15.728 144.008 15.94 144.216 16.1 144.44C16.268 144.656 16.4 144.896 16.496 145.16C16.592 145.424 16.668 145.712 16.724 146.024Z" fill="#667085"/>
<path d="M38.4029 16V15.148H40.3949V8.392H40.9229L38.5949 9.844V8.848L40.6709 7.54H41.3909V15.148H43.2629V16H38.4029ZM45.3342 17.368L44.8782 17.02C45.0942 16.796 45.2342 16.584 45.2982 16.384C45.3702 16.192 45.4062 15.996 45.4062 15.796L45.6222 16H44.8302V14.776H46.0542V15.64C46.0542 15.96 46.0022 16.26 45.8982 16.54C45.7942 16.828 45.6062 17.104 45.3342 17.368ZM50.4047 16.108C49.4447 16.108 48.7087 15.736 48.1967 14.992C47.6847 14.248 47.4287 13.172 47.4287 11.764C47.4287 10.348 47.6847 9.272 48.1967 8.536C48.7087 7.8 49.4447 7.432 50.4047 7.432C51.3727 7.432 52.1087 7.8 52.6127 8.536C53.1247 9.272 53.3807 10.344 53.3807 11.752C53.3807 13.168 53.1247 14.248 52.6127 14.992C52.1007 15.736 51.3647 16.108 50.4047 16.108ZM50.4047 15.244C51.0767 15.244 51.5767 14.96 51.9047 14.392C52.2327 13.824 52.3967 12.944 52.3967 11.752C52.3967 10.552 52.2327 9.676 51.9047 9.124C51.5767 8.564 51.0767 8.284 50.4047 8.284C49.7407 8.284 49.2407 8.564 48.9047 9.124C48.5767 9.684 48.4127 10.56 48.4127 11.752C48.4127 12.944 48.5767 13.824 48.9047 14.392C49.2407 14.96 49.7407 15.244 50.4047 15.244Z" fill="#667085"/>
<line x1="62.5" y1="11" x2="602.5" y2="11" stroke="#F2F4F7" stroke-linecap="round"/>
<path d="M40.4789 75.8082C39.5189 75.8082 38.7829 75.4362 38.2709 74.6922C37.7589 73.9482 37.5029 72.8722 37.5029 71.4642C37.5029 70.0482 37.7589 68.9722 38.2709 68.2362C38.7829 67.5002 39.5189 67.1322 40.4789 67.1322C41.4469 67.1322 42.1829 67.5002 42.6869 68.2362C43.1989 68.9722 43.4549 70.0442 43.4549 71.4522C43.4549 72.8682 43.1989 73.9482 42.6869 74.6922C42.1749 75.4362 41.4389 75.8082 40.4789 75.8082ZM40.4789 74.9442C41.1509 74.9442 41.6509 74.6602 41.9789 74.0922C42.3069 73.5242 42.4709 72.6442 42.4709 71.4522C42.4709 70.2522 42.3069 69.3762 41.9789 68.8242C41.6509 68.2642 41.1509 67.9842 40.4789 67.9842C39.8149 67.9842 39.3149 68.2642 38.9789 68.8242C38.6509 69.3842 38.4869 70.2602 38.4869 71.4522C38.4869 72.6442 38.6509 73.5242 38.9789 74.0922C39.3149 74.6602 39.8149 74.9442 40.4789 74.9442ZM44.8302 75.7002V74.4762H46.0542V75.7002H44.8302ZM50.4047 75.8082C49.4367 75.8082 48.6887 75.6042 48.1607 75.1962C47.6327 74.7802 47.3687 74.2002 47.3687 73.4562C47.3687 72.8722 47.5487 72.3882 47.9087 72.0042C48.2687 71.6122 48.7447 71.3762 49.3367 71.2962V71.4762C48.8007 71.3642 48.3727 71.1202 48.0527 70.7442C47.7327 70.3602 47.5727 69.9082 47.5727 69.3882C47.5727 68.6762 47.8247 68.1242 48.3287 67.7322C48.8327 67.3322 49.5247 67.1322 50.4047 67.1322C51.2927 67.1322 51.9887 67.3322 52.4927 67.7322C52.9967 68.1242 53.2487 68.6762 53.2487 69.3882C53.2487 69.9082 53.0967 70.3602 52.7927 70.7442C52.4967 71.1282 52.0807 71.3682 51.5447 71.4642V71.2962C52.1287 71.3762 52.5927 71.6122 52.9367 72.0042C53.2807 72.3882 53.4527 72.8722 53.4527 73.4562C53.4527 74.2002 53.1887 74.7802 52.6607 75.1962C52.1327 75.6042 51.3807 75.8082 50.4047 75.8082ZM50.4047 74.9922C51.1087 74.9922 51.6327 74.8602 51.9767 74.5962C52.3287 74.3322 52.5047 73.9322 52.5047 73.3962C52.5047 72.8682 52.3287 72.4762 51.9767 72.2202C51.6327 71.9562 51.1087 71.8242 50.4047 71.8242C49.7007 71.8242 49.1727 71.9562 48.8207 72.2202C48.4767 72.4762 48.3047 72.8682 48.3047 73.3962C48.3047 73.9322 48.4807 74.3322 48.8327 74.5962C49.1847 74.8602 49.7087 74.9922 50.4047 74.9922ZM50.4047 71.0082C51.0127 71.0082 51.4767 70.8722 51.7967 70.6002C52.1247 70.3282 52.2887 69.9522 52.2887 69.4722C52.2887 68.9922 52.1247 68.6202 51.7967 68.3562C51.4767 68.0842 51.0127 67.9482 50.4047 67.9482C49.7967 67.9482 49.3287 68.0842 49.0007 68.3562C48.6807 68.6202 48.5207 68.9922 48.5207 69.4722C48.5207 69.9522 48.6807 70.3282 49.0007 70.6002C49.3287 70.8722 49.7967 71.0082 50.4047 71.0082Z" fill="#667085"/>
<line x1="62.5" y1="70.7002" x2="602.5" y2="70.7002" stroke="#F2F4F7" stroke-linecap="round"/>
<path d="M40.4789 133.008C39.5189 133.008 38.7829 132.636 38.2709 131.892C37.7589 131.148 37.5029 130.072 37.5029 128.664C37.5029 127.248 37.7589 126.172 38.2709 125.436C38.7829 124.7 39.5189 124.332 40.4789 124.332C41.4469 124.332 42.1829 124.7 42.6869 125.436C43.1989 126.172 43.4549 127.244 43.4549 128.652C43.4549 130.068 43.1989 131.148 42.6869 131.892C42.1749 132.636 41.4389 133.008 40.4789 133.008ZM40.4789 132.144C41.1509 132.144 41.6509 131.86 41.9789 131.292C42.3069 130.724 42.4709 129.844 42.4709 128.652C42.4709 127.452 42.3069 126.576 41.9789 126.024C41.6509 125.464 41.1509 125.184 40.4789 125.184C39.8149 125.184 39.3149 125.464 38.9789 126.024C38.6509 126.584 38.4869 127.46 38.4869 128.652C38.4869 129.844 38.6509 130.724 38.9789 131.292C39.3149 131.86 39.8149 132.144 40.4789 132.144ZM44.8302 132.9V131.676H46.0542V132.9H44.8302ZM50.6807 133.008C49.6567 133.008 48.8647 132.648 48.3047 131.928C47.7527 131.2 47.4767 130.184 47.4767 128.88C47.4767 127.904 47.6167 127.08 47.8967 126.408C48.1767 125.728 48.5767 125.212 49.0967 124.86C49.6167 124.508 50.2447 124.332 50.9807 124.332C51.4207 124.332 51.8647 124.424 52.3127 124.608C52.7607 124.784 53.1287 125.032 53.4167 125.352L53.0567 126.12C52.7527 125.808 52.4207 125.58 52.0607 125.436C51.7007 125.284 51.3367 125.208 50.9687 125.208C50.1527 125.208 49.5247 125.5 49.0847 126.084C48.6527 126.66 48.4367 127.528 48.4367 128.688V129.804H48.3287C48.3847 129.348 48.5207 128.956 48.7367 128.628C48.9607 128.292 49.2527 128.036 49.6127 127.86C49.9727 127.684 50.3727 127.596 50.8127 127.596C51.3247 127.596 51.7767 127.708 52.1687 127.932C52.5607 128.156 52.8687 128.472 53.0927 128.88C53.3167 129.28 53.4287 129.74 53.4287 130.26C53.4287 130.788 53.3127 131.26 53.0807 131.676C52.8487 132.092 52.5247 132.42 52.1087 132.66C51.6927 132.892 51.2167 133.008 50.6807 133.008ZM50.6087 132.168C50.9767 132.168 51.3007 132.092 51.5807 131.94C51.8687 131.78 52.0887 131.56 52.2407 131.28C52.4007 130.992 52.4807 130.664 52.4807 130.296C52.4807 129.928 52.4007 129.604 52.2407 129.324C52.0887 129.044 51.8687 128.824 51.5807 128.664C51.3007 128.504 50.9767 128.424 50.6087 128.424C50.2407 128.424 49.9167 128.504 49.6367 128.664C49.3567 128.824 49.1367 129.044 48.9767 129.324C48.8247 129.604 48.7487 129.928 48.7487 130.296C48.7487 130.664 48.8247 130.992 48.9767 131.28C49.1367 131.56 49.3567 131.78 49.6367 131.94C49.9167 132.092 50.2407 132.168 50.6087 132.168Z" fill="#667085"/>
<line x1="62.5" y1="127.9" x2="602.5" y2="127.9" stroke="#F2F4F7" stroke-linecap="round"/>
<path d="M40.4789 190.208C39.5189 190.208 38.7829 189.836 38.2709 189.092C37.7589 188.348 37.5029 187.272 37.5029 185.864C37.5029 184.448 37.7589 183.372 38.2709 182.636C38.7829 181.9 39.5189 181.532 40.4789 181.532C41.4469 181.532 42.1829 181.9 42.6869 182.636C43.1989 183.372 43.4549 184.444 43.4549 185.852C43.4549 187.268 43.1989 188.348 42.6869 189.092C42.1749 189.836 41.4389 190.208 40.4789 190.208ZM40.4789 189.344C41.1509 189.344 41.6509 189.06 41.9789 188.492C42.3069 187.924 42.4709 187.044 42.4709 185.852C42.4709 184.652 42.3069 183.776 41.9789 183.224C41.6509 182.664 41.1509 182.384 40.4789 182.384C39.8149 182.384 39.3149 182.664 38.9789 183.224C38.6509 183.784 38.4869 184.66 38.4869 185.852C38.4869 187.044 38.6509 187.924 38.9789 188.492C39.3149 189.06 39.8149 189.344 40.4789 189.344ZM44.8302 190.1V188.876H46.0542V190.1H44.8302ZM51.4367 190.1V188.264H47.4047V187.544L51.5927 181.64H52.4087V187.46H53.7047V188.264H52.4087V190.1H51.4367ZM51.4367 187.46V182.816H51.7007L48.2207 187.712V187.46H51.4367Z" fill="#667085"/>
<line x1="62.5" y1="185.1" x2="602.5" y2="185.1" stroke="#F2F4F7" stroke-linecap="round"/>
<path d="M40.4789 247.408C39.5189 247.408 38.7829 247.036 38.2709 246.292C37.7589 245.548 37.5029 244.472 37.5029 243.064C37.5029 241.648 37.7589 240.572 38.2709 239.836C38.7829 239.1 39.5189 238.732 40.4789 238.732C41.4469 238.732 42.1829 239.1 42.6869 239.836C43.1989 240.572 43.4549 241.644 43.4549 243.052C43.4549 244.468 43.1989 245.548 42.6869 246.292C42.1749 247.036 41.4389 247.408 40.4789 247.408ZM40.4789 246.544C41.1509 246.544 41.6509 246.26 41.9789 245.692C42.3069 245.124 42.4709 244.244 42.4709 243.052C42.4709 241.852 42.3069 240.976 41.9789 240.424C41.6509 239.864 41.1509 239.584 40.4789 239.584C39.8149 239.584 39.3149 239.864 38.9789 240.424C38.6509 240.984 38.4869 241.86 38.4869 243.052C38.4869 244.244 38.6509 245.124 38.9789 245.692C39.3149 246.26 39.8149 246.544 40.4789 246.544ZM44.8302 247.3V246.076H46.0542V247.3H44.8302ZM47.8367 247.3V246.556L50.8367 243.424C51.2287 243.016 51.5207 242.628 51.7127 242.26C51.9127 241.884 52.0127 241.496 52.0127 241.096C52.0127 240.608 51.8607 240.24 51.5567 239.992C51.2527 239.736 50.8127 239.608 50.2367 239.608C49.7887 239.608 49.3727 239.688 48.9887 239.848C48.6127 240 48.2487 240.244 47.8967 240.58L47.5367 239.8C47.8567 239.48 48.2647 239.224 48.7607 239.032C49.2567 238.832 49.7807 238.732 50.3327 238.732C51.1887 238.732 51.8487 238.932 52.3127 239.332C52.7767 239.724 53.0087 240.284 53.0087 241.012C53.0087 241.548 52.8767 242.06 52.6127 242.548C52.3567 243.028 51.9807 243.524 51.4847 244.036L48.8327 246.724V246.448H53.3687V247.3H47.8367Z" fill="#667085"/>
<line x1="62.5" y1="242.3" x2="602.5" y2="242.3" stroke="#F2F4F7" stroke-linecap="round"/>
<path d="M50.4047 304.608C49.4447 304.608 48.7087 304.236 48.1967 303.492C47.6847 302.748 47.4287 301.672 47.4287 300.264C47.4287 298.848 47.6847 297.772 48.1967 297.036C48.7087 296.3 49.4447 295.932 50.4047 295.932C51.3727 295.932 52.1087 296.3 52.6127 297.036C53.1247 297.772 53.3807 298.844 53.3807 300.252C53.3807 301.668 53.1247 302.748 52.6127 303.492C52.1007 304.236 51.3647 304.608 50.4047 304.608ZM50.4047 303.744C51.0767 303.744 51.5767 303.46 51.9047 302.892C52.2327 302.324 52.3967 301.444 52.3967 300.252C52.3967 299.052 52.2327 298.176 51.9047 297.624C51.5767 297.064 51.0767 296.784 50.4047 296.784C49.7407 296.784 49.2407 297.064 48.9047 297.624C48.5767 298.184 48.4127 299.06 48.4127 300.252C48.4127 301.444 48.5767 302.324 48.9047 302.892C49.2407 303.46 49.7407 303.744 50.4047 303.744Z" fill="#667085"/>
<line x1="62.5" y1="299.5" x2="602.5" y2="299.5" stroke="#F2F4F7" stroke-linecap="round"/>
<path d="M102.974 322V313.54H103.838L107.234 321.208H106.886L110.282 313.54H111.146V322H110.234V314.824H110.594L107.39 322H106.73L103.514 314.824H103.874V322H102.974ZM115.627 322.108C115.051 322.108 114.547 321.984 114.115 321.736C113.691 321.48 113.363 321.12 113.131 320.656C112.899 320.184 112.783 319.628 112.783 318.988C112.783 318.34 112.899 317.784 113.131 317.32C113.363 316.856 113.691 316.5 114.115 316.252C114.547 315.996 115.051 315.868 115.627 315.868C116.211 315.868 116.715 315.996 117.139 316.252C117.571 316.5 117.903 316.856 118.135 317.32C118.375 317.784 118.495 318.34 118.495 318.988C118.495 319.628 118.375 320.184 118.135 320.656C117.903 321.12 117.571 321.48 117.139 321.736C116.715 321.984 116.211 322.108 115.627 322.108ZM115.627 321.316C116.203 321.316 116.659 321.12 116.995 320.728C117.331 320.328 117.499 319.748 117.499 318.988C117.499 318.22 117.327 317.64 116.983 317.248C116.647 316.848 116.195 316.648 115.627 316.648C115.059 316.648 114.607 316.848 114.271 317.248C113.935 317.64 113.767 318.22 113.767 318.988C113.767 319.748 113.935 320.328 114.271 320.728C114.607 321.12 115.059 321.316 115.627 321.316ZM120.011 322V317.368C120.011 317.144 119.999 316.916 119.975 316.684C119.959 316.444 119.939 316.208 119.915 315.976H120.851L120.971 317.296H120.826C121.003 316.832 121.283 316.48 121.667 316.24C122.059 315.992 122.511 315.868 123.023 315.868C123.735 315.868 124.271 316.06 124.631 316.444C124.999 316.82 125.183 317.416 125.183 318.232V322H124.211V318.292C124.211 317.724 124.095 317.312 123.863 317.056C123.639 316.792 123.287 316.66 122.807 316.66C122.247 316.66 121.803 316.832 121.475 317.176C121.147 317.52 120.983 317.98 120.983 318.556V322H120.011Z" fill="#667085"/>
<path d="M180.027 322V314.38H177.039V313.54H183.999V314.38H181.023V322H180.027ZM186.366 322.108C185.654 322.108 185.114 321.912 184.746 321.52C184.386 321.128 184.206 320.528 184.206 319.72V315.976H185.178V319.696C185.178 320.248 185.29 320.656 185.514 320.92C185.738 321.176 186.086 321.304 186.558 321.304C187.086 321.304 187.51 321.132 187.83 320.788C188.15 320.444 188.31 319.984 188.31 319.408V315.976H189.282V322H188.334V320.644H188.49C188.322 321.108 188.05 321.468 187.674 321.724C187.306 321.98 186.87 322.108 186.366 322.108ZM193.844 322.108C192.9 322.108 192.156 321.836 191.612 321.292C191.068 320.74 190.796 319.976 190.796 319C190.796 318.368 190.916 317.82 191.156 317.356C191.396 316.884 191.732 316.52 192.164 316.264C192.596 316 193.092 315.868 193.652 315.868C194.204 315.868 194.668 315.984 195.044 316.216C195.42 316.448 195.708 316.78 195.908 317.212C196.108 317.636 196.208 318.14 196.208 318.724V319.084H191.54V318.472H195.572L195.368 318.628C195.368 317.988 195.224 317.488 194.936 317.128C194.648 316.768 194.22 316.588 193.652 316.588C193.052 316.588 192.584 316.8 192.248 317.224C191.912 317.64 191.744 318.204 191.744 318.916V319.024C191.744 319.776 191.928 320.348 192.296 320.74C192.672 321.124 193.196 321.316 193.868 321.316C194.228 321.316 194.564 321.264 194.876 321.16C195.196 321.048 195.5 320.868 195.788 320.62L196.124 321.304C195.86 321.56 195.524 321.76 195.116 321.904C194.716 322.04 194.292 322.108 193.844 322.108Z" fill="#667085"/>
<path d="M249.843 322L246.891 313.54H247.935L250.515 321.16H250.095L252.807 313.54H253.599L256.167 321.16H255.783L258.435 313.54H259.419L256.443 322H255.555L253.059 314.668H253.311L250.707 322H249.843ZM262.752 322.108C261.808 322.108 261.064 321.836 260.52 321.292C259.976 320.74 259.704 319.976 259.704 319C259.704 318.368 259.824 317.82 260.064 317.356C260.304 316.884 260.64 316.52 261.072 316.264C261.504 316 262 315.868 262.56 315.868C263.112 315.868 263.576 315.984 263.952 316.216C264.328 316.448 264.616 316.78 264.816 317.212C265.016 317.636 265.116 318.14 265.116 318.724V319.084H260.448V318.472H264.48L264.276 318.628C264.276 317.988 264.132 317.488 263.844 317.128C263.556 316.768 263.128 316.588 262.56 316.588C261.96 316.588 261.492 316.8 261.156 317.224C260.82 317.64 260.652 318.204 260.652 318.916V319.024C260.652 319.776 260.836 320.348 261.204 320.74C261.58 321.124 262.104 321.316 262.776 321.316C263.136 321.316 263.472 321.264 263.784 321.16C264.104 321.048 264.408 320.868 264.696 320.62L265.032 321.304C264.768 321.56 264.432 321.76 264.024 321.904C263.624 322.04 263.2 322.108 262.752 322.108ZM268.883 322.108C268.355 322.108 267.891 321.984 267.491 321.736C267.091 321.48 266.779 321.12 266.555 320.656C266.339 320.192 266.231 319.636 266.231 318.988C266.231 318.332 266.339 317.772 266.555 317.308C266.779 316.844 267.091 316.488 267.491 316.24C267.891 315.992 268.355 315.868 268.883 315.868C269.427 315.868 269.895 316.004 270.287 316.276C270.687 316.548 270.955 316.916 271.091 317.38H270.947V313.168H271.919V322H270.959V320.56H271.091C270.963 321.04 270.699 321.42 270.299 321.7C269.899 321.972 269.427 322.108 268.883 322.108ZM269.087 321.316C269.655 321.316 270.111 321.12 270.455 320.728C270.799 320.328 270.971 319.748 270.971 318.988C270.971 318.22 270.799 317.64 270.455 317.248C270.111 316.848 269.655 316.648 269.087 316.648C268.519 316.648 268.063 316.848 267.719 317.248C267.383 317.64 267.215 318.22 267.215 318.988C267.215 319.748 267.383 320.328 267.719 320.728C268.063 321.12 268.519 321.316 269.087 321.316Z" fill="#667085"/>
<path d="M325.008 322V314.38H322.02V313.54H328.98V314.38H326.004V322H325.008ZM330.091 322V313.168H331.063V317.308H330.907C331.075 316.836 331.355 316.48 331.747 316.24C332.147 315.992 332.607 315.868 333.127 315.868C333.847 315.868 334.383 316.064 334.735 316.456C335.087 316.84 335.263 317.424 335.263 318.208V322H334.291V318.268C334.291 317.708 334.179 317.3 333.955 317.044C333.739 316.788 333.387 316.66 332.899 316.66C332.339 316.66 331.891 316.832 331.555 317.176C331.227 317.52 331.063 317.972 331.063 318.532V322H330.091ZM339.246 322.108C338.534 322.108 337.994 321.912 337.626 321.52C337.266 321.128 337.086 320.528 337.086 319.72V315.976H338.058V319.696C338.058 320.248 338.17 320.656 338.394 320.92C338.618 321.176 338.966 321.304 339.438 321.304C339.966 321.304 340.39 321.132 340.71 320.788C341.03 320.444 341.19 319.984 341.19 319.408V315.976H342.162V322H341.214V320.644H341.37C341.202 321.108 340.93 321.468 340.554 321.724C340.186 321.98 339.75 322.108 339.246 322.108Z" fill="#667085"/>
<path d="M399.47 322V313.54H404.75V314.356H400.466V317.32H404.486V318.136H400.466V322H399.47ZM405.959 322V317.428C405.959 317.188 405.951 316.944 405.935 316.696C405.927 316.448 405.911 316.208 405.887 315.976H406.823L406.943 317.44L406.775 317.452C406.855 317.092 406.995 316.796 407.195 316.564C407.395 316.332 407.631 316.16 407.903 316.048C408.175 315.928 408.459 315.868 408.755 315.868C408.875 315.868 408.979 315.872 409.067 315.88C409.163 315.888 409.251 315.908 409.331 315.94L409.319 316.804C409.199 316.764 409.087 316.74 408.983 316.732C408.887 316.716 408.775 316.708 408.647 316.708C408.295 316.708 407.987 316.792 407.723 316.96C407.467 317.128 407.271 317.344 407.135 317.608C407.007 317.872 406.943 318.152 406.943 318.448V322H405.959ZM410.342 322V315.976H411.314V322H410.342ZM410.222 314.608V313.516H411.422V314.608H410.222Z" fill="#667085"/>
<path d="M472.549 322.108C471.869 322.108 471.261 322.02 470.725 321.844C470.189 321.668 469.721 321.416 469.321 321.088L469.681 320.296C469.961 320.504 470.241 320.68 470.521 320.824C470.809 320.96 471.117 321.064 471.445 321.136C471.773 321.2 472.141 321.232 472.549 321.232C473.261 321.232 473.789 321.1 474.133 320.836C474.477 320.572 474.649 320.22 474.649 319.78C474.649 319.404 474.529 319.116 474.289 318.916C474.049 318.716 473.629 318.556 473.029 318.436L471.769 318.184C470.993 318.024 470.413 317.764 470.029 317.404C469.653 317.044 469.465 316.556 469.465 315.94C469.465 315.436 469.593 314.996 469.849 314.62C470.113 314.244 470.481 313.952 470.953 313.744C471.425 313.536 471.973 313.432 472.597 313.432C473.197 313.432 473.745 313.524 474.241 313.708C474.737 313.884 475.161 314.144 475.513 314.488L475.165 315.256C474.789 314.92 474.393 314.68 473.977 314.536C473.569 314.384 473.105 314.308 472.585 314.308C471.929 314.308 471.409 314.452 471.025 314.74C470.649 315.02 470.461 315.404 470.461 315.892C470.461 316.284 470.581 316.592 470.821 316.816C471.061 317.032 471.457 317.196 472.009 317.308L473.281 317.56C474.097 317.728 474.697 317.98 475.081 318.316C475.465 318.652 475.657 319.124 475.657 319.732C475.657 320.196 475.529 320.608 475.273 320.968C475.025 321.328 474.669 321.608 474.205 321.808C473.741 322.008 473.189 322.108 472.549 322.108ZM479.45 322.108C478.914 322.108 478.446 321.984 478.046 321.736C477.646 321.48 477.334 321.12 477.11 320.656C476.894 320.192 476.786 319.636 476.786 318.988C476.786 318.332 476.894 317.772 477.11 317.308C477.334 316.844 477.646 316.488 478.046 316.24C478.446 315.992 478.914 315.868 479.45 315.868C479.994 315.868 480.462 316.008 480.854 316.288C481.254 316.56 481.518 316.932 481.646 317.404H481.502L481.634 315.976H482.57C482.546 316.208 482.522 316.444 482.498 316.684C482.482 316.916 482.474 317.144 482.474 317.368V322H481.502V320.584H481.634C481.506 321.056 481.242 321.428 480.842 321.7C480.442 321.972 479.978 322.108 479.45 322.108ZM479.642 321.316C480.218 321.316 480.674 321.12 481.01 320.728C481.346 320.328 481.514 319.748 481.514 318.988C481.514 318.22 481.346 317.64 481.01 317.248C480.674 316.848 480.218 316.648 479.642 316.648C479.074 316.648 478.618 316.848 478.274 317.248C477.938 317.64 477.77 318.22 477.77 318.988C477.77 319.748 477.938 320.328 478.274 320.728C478.618 321.12 479.074 321.316 479.642 321.316ZM486.489 322.108C485.897 322.108 485.445 321.94 485.133 321.604C484.821 321.26 484.665 320.744 484.665 320.056V316.732H483.489V315.976H484.665V314.332L485.637 314.056V315.976H487.365V316.732H485.637V319.948C485.637 320.428 485.717 320.772 485.877 320.98C486.045 321.18 486.293 321.28 486.621 321.28C486.773 321.28 486.909 321.268 487.029 321.244C487.149 321.212 487.257 321.176 487.353 321.136V321.952C487.241 322 487.105 322.036 486.945 322.06C486.793 322.092 486.641 322.108 486.489 322.108Z" fill="#667085"/>
<path d="M544.099 322.108C543.419 322.108 542.811 322.02 542.275 321.844C541.739 321.668 541.271 321.416 540.871 321.088L541.231 320.296C541.511 320.504 541.791 320.68 542.071 320.824C542.359 320.96 542.667 321.064 542.995 321.136C543.323 321.2 543.691 321.232 544.099 321.232C544.811 321.232 545.339 321.1 545.683 320.836C546.027 320.572 546.199 320.22 546.199 319.78C546.199 319.404 546.079 319.116 545.839 318.916C545.599 318.716 545.179 318.556 544.579 318.436L543.319 318.184C542.543 318.024 541.963 317.764 541.579 317.404C541.203 317.044 541.015 316.556 541.015 315.94C541.015 315.436 541.143 314.996 541.399 314.62C541.663 314.244 542.031 313.952 542.503 313.744C542.975 313.536 543.523 313.432 544.147 313.432C544.747 313.432 545.295 313.524 545.791 313.708C546.287 313.884 546.711 314.144 547.063 314.488L546.715 315.256C546.339 314.92 545.943 314.68 545.527 314.536C545.119 314.384 544.655 314.308 544.135 314.308C543.479 314.308 542.959 314.452 542.575 314.74C542.199 315.02 542.011 315.404 542.011 315.892C542.011 316.284 542.131 316.592 542.371 316.816C542.611 317.032 543.007 317.196 543.559 317.308L544.831 317.56C545.647 317.728 546.247 317.98 546.631 318.316C547.015 318.652 547.207 319.124 547.207 319.732C547.207 320.196 547.079 320.608 546.823 320.968C546.575 321.328 546.219 321.608 545.755 321.808C545.291 322.008 544.739 322.108 544.099 322.108ZM550.832 322.108C550.12 322.108 549.58 321.912 549.212 321.52C548.852 321.128 548.672 320.528 548.672 319.72V315.976H549.644V319.696C549.644 320.248 549.756 320.656 549.98 320.92C550.204 321.176 550.552 321.304 551.024 321.304C551.552 321.304 551.976 321.132 552.296 320.788C552.616 320.444 552.776 319.984 552.776 319.408V315.976H553.748V322H552.8V320.644H552.956C552.788 321.108 552.516 321.468 552.14 321.724C551.772 321.98 551.336 322.108 550.832 322.108ZM555.634 322V317.368C555.634 317.144 555.622 316.916 555.598 316.684C555.582 316.444 555.562 316.208 555.538 315.976H556.474L556.594 317.296H556.45C556.626 316.832 556.906 316.48 557.29 316.24C557.682 315.992 558.134 315.868 558.646 315.868C559.358 315.868 559.894 316.06 560.254 316.444C560.622 316.82 560.806 317.416 560.806 318.232V322H559.834V318.292C559.834 317.724 559.718 317.312 559.486 317.056C559.262 316.792 558.91 316.66 558.43 316.66C557.87 316.66 557.426 316.832 557.098 317.176C556.77 317.52 556.606 317.98 556.606 318.556V322H555.634Z" fill="#667085"/>
<path d="M299.4 348V339.54H302.208C303.144 339.54 303.936 339.704 304.584 340.032C305.232 340.352 305.724 340.828 306.06 341.46C306.396 342.084 306.564 342.852 306.564 343.764C306.564 344.668 306.396 345.436 306.06 346.068C305.724 346.7 305.232 347.18 304.584 347.508C303.936 347.836 303.144 348 302.208 348H299.4ZM300.396 347.148H302.136C303.288 347.148 304.144 346.868 304.704 346.308C305.264 345.74 305.544 344.892 305.544 343.764C305.544 342.628 305.264 341.78 304.704 341.22C304.144 340.66 303.288 340.38 302.136 340.38H300.396V347.148ZM310.549 348.108C310.013 348.108 309.545 347.984 309.145 347.736C308.745 347.48 308.433 347.12 308.209 346.656C307.993 346.192 307.885 345.636 307.885 344.988C307.885 344.332 307.993 343.772 308.209 343.308C308.433 342.844 308.745 342.488 309.145 342.24C309.545 341.992 310.013 341.868 310.549 341.868C311.093 341.868 311.561 342.008 311.953 342.288C312.353 342.56 312.617 342.932 312.745 343.404H312.601L312.733 341.976H313.669C313.645 342.208 313.621 342.444 313.597 342.684C313.581 342.916 313.573 343.144 313.573 343.368V348H312.601V346.584H312.733C312.605 347.056 312.341 347.428 311.941 347.7C311.541 347.972 311.077 348.108 310.549 348.108ZM310.741 347.316C311.317 347.316 311.773 347.12 312.109 346.728C312.445 346.328 312.613 345.748 312.613 344.988C312.613 344.22 312.445 343.64 312.109 343.248C311.773 342.848 311.317 342.648 310.741 342.648C310.173 342.648 309.717 342.848 309.373 343.248C309.037 343.64 308.869 344.22 308.869 344.988C308.869 345.748 309.037 346.328 309.373 346.728C309.717 347.12 310.173 347.316 310.741 347.316ZM315.153 350.724L314.925 349.92C315.301 349.832 315.613 349.728 315.861 349.608C316.117 349.496 316.329 349.344 316.497 349.152C316.665 348.96 316.809 348.72 316.929 348.432L317.241 347.724L317.217 348.132L314.589 341.976H315.645L317.817 347.268H317.505L319.653 341.976H320.673L317.889 348.504C317.729 348.888 317.553 349.208 317.361 349.464C317.169 349.728 316.961 349.94 316.737 350.1C316.521 350.268 316.281 350.4 316.017 350.496C315.753 350.592 315.465 350.668 315.153 350.724ZM323.655 348.108C323.175 348.108 322.727 348.044 322.311 347.916C321.895 347.78 321.551 347.592 321.279 347.352L321.615 346.668C321.911 346.9 322.231 347.072 322.575 347.184C322.927 347.296 323.291 347.352 323.667 347.352C324.147 347.352 324.507 347.268 324.747 347.1C324.995 346.924 325.119 346.684 325.119 346.38C325.119 346.148 325.039 345.964 324.879 345.828C324.727 345.684 324.475 345.572 324.123 345.492L323.007 345.264C322.495 345.152 322.111 344.964 321.855 344.7C321.599 344.428 321.471 344.084 321.471 343.668C321.471 343.316 321.563 343.008 321.747 342.744C321.931 342.472 322.199 342.26 322.551 342.108C322.903 341.948 323.315 341.868 323.787 341.868C324.227 341.868 324.631 341.936 324.999 342.072C325.375 342.2 325.687 342.388 325.935 342.636L325.587 343.308C325.347 343.076 325.071 342.904 324.759 342.792C324.455 342.672 324.139 342.612 323.811 342.612C323.339 342.612 322.983 342.708 322.743 342.9C322.511 343.084 322.395 343.328 322.395 343.632C322.395 343.864 322.467 344.056 322.611 344.208C322.763 344.352 322.995 344.46 323.307 344.532L324.423 344.76C324.967 344.88 325.371 345.068 325.635 345.324C325.907 345.572 326.043 345.908 326.043 346.332C326.043 346.692 325.943 347.008 325.743 347.28C325.543 347.544 325.263 347.748 324.903 347.892C324.551 348.036 324.135 348.108 323.655 348.108Z" fill="#667085"/>
<path d="M91.1985 167.268L171.787 128.078L252.375 192.52L332.964 218.516L413.552 153.156L485.119 167.268L563.904 111.812" stroke="#038C8C" stroke-width="2" stroke-linecap="round" stroke-linejoin="round"/>
<path d="M171.787 128.078L89.4731 167.313V264.706H565.629V110.022L485.119 167.266L413.552 153.155L332.964 218.511L252.375 192.517L171.787 128.078Z" fill="#F5FEF8"/>
<ellipse cx="92.3486" cy="166.955" rx="3.4504" ry="2.14839" fill="white" stroke="#038C8C" stroke-width="1.5"/>
<ellipse cx="171.708" cy="129" rx="3.4504" ry="2.14839" fill="white" stroke="#038C8C" stroke-width="1.5"/>
<ellipse cx="252.217" cy="192.735" rx="3.4504" ry="2.14838" fill="white" stroke="#038C8C" stroke-width="1.5"/>
<ellipse cx="331.576" cy="218.517" rx="3.45039" ry="2.14839" fill="white" stroke="#038C8C" stroke-width="1.5"/>
<ellipse cx="413.236" cy="153.349" rx="3.45042" ry="2.14839" fill="white" stroke="#038C8C" stroke-width="1.5"/>
<ellipse cx="484.544" cy="167.671" rx="3.45039" ry="2.14839" fill="white" stroke="#038C8C" stroke-width="1.5"/>
<ellipse cx="562.753" cy="111.812" rx="3.45042" ry="2.14839" fill="white" stroke="#038C8C" stroke-width="1.5"/>
</svg>
