<svg width="30" height="30" viewBox="0 0 30 30" fill="none" xmlns="http://www.w3.org/2000/svg">
<g clip-path="url(#clip0_218_398)">
<path d="M10.5 15C12.0913 15 13.6174 14.2098 14.7426 12.8033C15.8679 11.3968 16.5 9.48912 16.5 7.5C16.5 5.51088 15.8679 3.60322 14.7426 2.1967C13.6174 0.790176 12.0913 0 10.5 0C8.9087 0 7.38258 0.790176 6.25736 2.1967C5.13214 3.60322 4.5 5.51088 4.5 7.5C4.5 9.48912 5.13214 11.3968 6.25736 12.8033C7.38258 14.2098 8.9087 15 10.5 15ZM8.35781 17.8125C3.74063 17.8125 0 22.4883 0 28.2598C0 29.2207 0.623438 30 1.39219 30H19.6078C19.6922 30 19.7719 29.9883 19.8563 29.9707C16.2797 26.7422 15.1781 21.709 15.0234 18.2402C14.2688 17.959 13.4719 17.8125 12.6469 17.8125H8.3625H8.35781ZM22.8328 13.2246L17.2078 16.0371C16.7812 16.2539 16.5 16.7695 16.5 17.3438C16.5 21.0527 17.7141 27.2344 22.8187 29.8945C23.0953 30.041 23.4094 30.041 23.6859 29.8945C28.7859 27.2344 30 21.0527 30 17.3438C30 16.7695 29.7188 16.2539 29.2922 16.0371L23.6672 13.2246C23.4 13.0898 23.1 13.0898 22.8328 13.2246ZM27.7219 18.2812C27.5391 21.252 26.4469 25.1191 23.25 27.0527V16.0488L27.7219 18.2812Z" fill="black"/>
</g>
<defs>
<clipPath id="clip0_218_398">
<rect width="30" height="30" fill="white"/>
</clipPath>
</defs>
</svg>
